<svg width="94" height="42" viewBox="0 0 94 42" fill="none" xmlns="http://www.w3.org/2000/svg">
<g clip-path="url(#clip0_151_1883)">
<rect x="0.320923" y="0.278809" width="93" height="41" rx="20" fill="white"/>
<path d="M12.6725 26.2788L10.5944 18.6424H12.7371L13.9204 23.7731H13.99L15.2229 18.6424H17.3259L18.5787 23.7433H18.6434L19.8067 18.6424H21.9445L19.8713 26.2788H17.6292L16.3167 21.4763H16.2222L14.9097 26.2788H12.6725ZM23.0743 26.2788V18.6424H25.1276V19.9748H25.2071C25.3463 19.5009 25.58 19.1429 25.9081 18.901C26.2362 18.6557 26.6141 18.5331 27.0416 18.5331C27.1477 18.5331 27.262 18.5397 27.3847 18.553C27.5073 18.5662 27.615 18.5844 27.7078 18.6076V20.4869C27.6084 20.4571 27.4708 20.4306 27.2952 20.4074C27.1195 20.3842 26.9588 20.3726 26.8129 20.3726C26.5014 20.3726 26.223 20.4405 25.9777 20.5764C25.7358 20.709 25.5435 20.8946 25.401 21.1332C25.2618 21.3718 25.1922 21.6469 25.1922 21.9585V26.2788H23.0743ZM28.8028 26.2788V18.6424H30.9207V26.2788H28.8028ZM29.8667 17.6581C29.5519 17.6581 29.2817 17.5537 29.0564 17.3449C28.8343 17.1327 28.7233 16.8792 28.7233 16.5842C28.7233 16.2925 28.8343 16.0423 29.0564 15.8335C29.2817 15.6214 29.5519 15.5153 29.8667 15.5153C30.1816 15.5153 30.4501 15.6214 30.6721 15.8335C30.8975 16.0423 31.0102 16.2925 31.0102 16.5842C31.0102 16.8792 30.8975 17.1327 30.6721 17.3449C30.4501 17.5537 30.1816 17.6581 29.8667 17.6581ZM36.6791 18.6424V20.2334H32.0803V18.6424H36.6791ZM33.1244 16.8129H35.2423V23.9322C35.2423 24.1278 35.2721 24.2802 35.3318 24.3896C35.3914 24.4957 35.4743 24.5702 35.5803 24.6133C35.6897 24.6564 35.8157 24.678 35.9582 24.678C36.0576 24.678 36.157 24.6697 36.2565 24.6531C36.3559 24.6332 36.4321 24.6183 36.4852 24.6084L36.8183 26.1843C36.7122 26.2175 36.5631 26.2556 36.3708 26.2987C36.1786 26.3451 35.9449 26.3733 35.6698 26.3832C35.1594 26.4031 34.712 26.3352 34.3275 26.1794C33.9463 26.0236 33.6497 25.7816 33.4376 25.4535C33.2255 25.1254 33.1211 24.7111 33.1244 24.2106V16.8129ZM41.4568 26.428C40.6712 26.428 39.9951 26.2689 39.4283 25.9507C38.8649 25.6292 38.4307 25.1751 38.1258 24.5885C37.8209 23.9985 37.6684 23.3008 37.6684 22.4954C37.6684 21.7099 37.8209 21.0205 38.1258 20.4272C38.4307 19.834 38.8599 19.3716 39.4134 19.0402C39.9702 18.7087 40.6232 18.543 41.3722 18.543C41.876 18.543 42.345 18.6242 42.7792 18.7866C43.2167 18.9457 43.5979 19.186 43.9227 19.5075C44.2508 19.829 44.506 20.2334 44.6883 20.7206C44.8706 21.2045 44.9617 21.7712 44.9617 22.4209V23.0025H38.5136V21.69H42.9681C42.9681 21.3851 42.9018 21.115 42.7693 20.8797C42.6367 20.6443 42.4527 20.4604 42.2174 20.3278C41.9854 20.1919 41.7153 20.124 41.407 20.124C41.0855 20.124 40.8005 20.1986 40.5519 20.3477C40.3067 20.4935 40.1144 20.6907 39.9752 20.9393C39.836 21.1846 39.7648 21.458 39.7614 21.7596V23.0075C39.7614 23.3853 39.831 23.7118 39.9702 23.9869C40.1128 24.262 40.3133 24.4741 40.5718 24.6233C40.8303 24.7724 41.1369 24.847 41.4916 24.847C41.7269 24.847 41.9423 24.8138 42.1379 24.7476C42.3334 24.6813 42.5008 24.5818 42.64 24.4493C42.7792 24.3167 42.8853 24.1543 42.9582 23.962L44.917 24.0913C44.8175 24.562 44.6137 24.9729 44.3055 25.3243C44.0006 25.6723 43.6061 25.9441 43.1222 26.1396C42.6416 26.3318 42.0865 26.428 41.4568 26.428ZM53.6459 18.6424V20.2334H49.0471V18.6424H53.6459ZM50.0912 16.8129H52.2091V23.9322C52.2091 24.1278 52.2389 24.2802 52.2986 24.3896C52.3582 24.4957 52.4411 24.5702 52.5471 24.6133C52.6565 24.6564 52.7825 24.678 52.925 24.678C53.0244 24.678 53.1238 24.6697 53.2233 24.6531C53.3227 24.6332 53.3989 24.6183 53.452 24.6084L53.7851 26.1843C53.679 26.2175 53.5298 26.2556 53.3376 26.2987C53.1454 26.3451 52.9117 26.3733 52.6366 26.3832C52.1262 26.4031 51.6788 26.3352 51.2943 26.1794C50.9131 26.0236 50.6165 25.7816 50.4044 25.4535C50.1923 25.1254 50.0878 24.7111 50.0912 24.2106V16.8129ZM58.3937 26.428C57.6215 26.428 56.9536 26.2639 56.3902 25.9358C55.83 25.6043 55.3975 25.1436 55.0926 24.5537C54.7877 23.9604 54.6352 23.2727 54.6352 22.4905C54.6352 21.7016 54.7877 21.0122 55.0926 20.4223C55.3975 19.829 55.83 19.3683 56.3902 19.0402C56.9536 18.7087 57.6215 18.543 58.3937 18.543C59.166 18.543 59.8322 18.7087 60.3923 19.0402C60.9557 19.3683 61.3899 19.829 61.6949 20.4223C61.9998 21.0122 62.1522 21.7016 62.1522 22.4905C62.1522 23.2727 61.9998 23.9604 61.6949 24.5537C61.3899 25.1436 60.9557 25.6043 60.3923 25.9358C59.8322 26.2639 59.166 26.428 58.3937 26.428ZM58.4037 24.7873C58.755 24.7873 59.0483 24.6879 59.2836 24.489C59.519 24.2869 59.6963 24.0118 59.8156 23.6638C59.9382 23.3157 59.9995 22.9197 59.9995 22.4755C59.9995 22.0314 59.9382 21.6353 59.8156 21.2873C59.6963 20.9393 59.519 20.6642 59.2836 20.462C59.0483 20.2599 58.755 20.1588 58.4037 20.1588C58.049 20.1588 57.7507 20.2599 57.5088 20.462C57.2701 20.6642 57.0895 20.9393 56.9669 21.2873C56.8476 21.6353 56.7879 22.0314 56.7879 22.4755C56.7879 22.9197 56.8476 23.3157 56.9669 23.6638C57.0895 24.0118 57.2701 24.2869 57.5088 24.489C57.7507 24.6879 58.049 24.7873 58.4037 24.7873ZM71.6666 23.0274V18.6424H73.7845V26.2788H71.7511V24.8917H71.6716C71.4992 25.3392 71.2126 25.6988 70.8115 25.9706C70.4138 26.2424 69.9282 26.3782 69.3548 26.3782C68.8444 26.3782 68.3953 26.2622 68.0075 26.0302C67.6198 25.7982 67.3165 25.4684 67.0977 25.0409C66.8823 24.6133 66.7729 24.1013 66.7696 23.5047V18.6424H68.8875V23.1268C68.8908 23.5776 69.0118 23.9339 69.2504 24.1957C69.4891 24.4575 69.8089 24.5885 70.21 24.5885C70.4652 24.5885 70.7038 24.5305 70.9259 24.4145C71.1479 24.2951 71.3269 24.1195 71.4628 23.8875C71.602 23.6555 71.6699 23.3688 71.6666 23.0274ZM81.8323 20.82L79.8934 20.9393C79.8602 20.7736 79.789 20.6245 79.6796 20.4919C79.5702 20.356 79.426 20.2483 79.2471 20.1687C79.0714 20.0859 78.8609 20.0444 78.6157 20.0444C78.2875 20.0444 78.0108 20.114 77.7854 20.2532C77.56 20.3891 77.4473 20.5714 77.4473 20.8001C77.4473 20.9824 77.5203 21.1365 77.6661 21.2625C77.8119 21.3884 78.0622 21.4895 78.4168 21.5657L79.7989 21.8441C80.5413 21.9966 81.0948 22.2419 81.4594 22.5799C81.824 22.918 82.0063 23.3621 82.0063 23.9123C82.0063 24.4128 81.8588 24.852 81.5638 25.2298C81.2722 25.6076 80.8711 25.9026 80.3607 26.1147C79.8536 26.3236 79.2686 26.428 78.6057 26.428C77.5948 26.428 76.7894 26.2175 76.1895 25.7966C75.5929 25.3723 75.2433 24.7956 75.1405 24.0665L77.2236 23.9571C77.2866 24.2653 77.4391 24.5006 77.681 24.663C77.923 24.8221 78.2329 24.9017 78.6107 24.9017C78.9819 24.9017 79.2802 24.8304 79.5056 24.6879C79.7343 24.5421 79.8503 24.3548 79.8536 24.1261C79.8503 23.9339 79.7691 23.7764 79.61 23.6538C79.4509 23.5279 79.2056 23.4317 78.8742 23.3655L77.5517 23.102C76.806 22.9528 76.2508 22.6943 75.8863 22.3264C75.525 21.9585 75.3444 21.4895 75.3444 20.9194C75.3444 20.4289 75.4769 20.0063 75.7421 19.6517C76.0106 19.297 76.3867 19.0236 76.8706 18.8314C77.3579 18.6391 77.9279 18.543 78.5809 18.543C79.5454 18.543 80.3044 18.7468 80.8579 19.1545C81.4147 19.5622 81.7395 20.1174 81.8323 20.82Z" fill="#131212"/>
</g>
<defs>
<clipPath id="clip0_151_1883">
<rect width="93" height="41" fill="white" transform="translate(0.320923 0.278809)"/>
</clipPath>
</defs>
</svg>
