<svg width="1132" height="648" viewBox="0 0 1132 648" fill="none" xmlns="http://www.w3.org/2000/svg">
<g clip-path="url(#clip0_209_373)">
<path d="M3.17383 62.2488H0V648H1130.94L1132 15.3071L1129.88 16.3276L1126.71 19.389H1125.65L1122.48 16.3276L1117.19 14.2866L1110.84 13.2661L1104.49 9.18425L1101.32 13.2661L1099.73 9.18425H1094.97L1091.8 7.14331L1086.51 5.10236L1081.22 3.06142L1079.1 0L1073.81 5.10236L1069.58 10.2047L1063.23 16.3276L1061.12 15.3071L1054.77 19.389L1051.6 22.4504L1049.48 27.5528L1046.31 25.5118L1044.19 28.5732L1041.02 33.6756L1036.79 27.5528L1033.61 29.5937L1030.44 33.6756L1027.26 31.6346H1017.74L1013.51 33.6756L1008.22 30.6142L1005.05 33.6756L1000.81 36.737L999.208 33.6756L998.139 35.7165H993.409L991.293 33.6756H983.888L979.656 31.6346L977.54 33.6756L974.366 32.6551L970.135 30.6142L968.019 27.5528L961.671 32.6551H960.613L957.439 26.5323L956.381 22.4504L952.149 18.3685L951.092 20.4094L948.976 23.4709L944.744 24.4913L939.454 26.5323H935.222L928.875 29.5937L925.701 28.5732L922.527 32.6551L916.179 36.737H911.948L901.368 42.8598H892.905L885.499 50.0031L878.093 43.8803L874.92 42.8598L869.63 43.8803L866.456 37.7575L862.224 36.737L857.992 39.7984H849.529L846.355 36.737L837.892 33.6756L833.66 28.5732L830.486 31.6346L826.254 26.5323L823.08 30.6142L816.733 26.5323L811.443 31.6346L807.211 27.5528L801.921 30.6142L797.69 27.5528L795.574 22.4504L790.284 28.5732L782.878 33.6756L777.589 31.6346L768.067 36.737L763.835 37.7575L761.72 34.6961L755.372 37.7575H751.14L746.908 40.8189L741.619 42.8598L737.387 40.8189H734.213L731.039 43.8803L727.865 42.8598L724.692 46.9417L721.518 45.9213L719.402 50.0031L716.228 53.0646L710.938 46.9417L706.706 45.9213L704.045 47.9622H699.301L692.953 46.9417L687.664 47.9622H681.316L677.084 45.9213L673.91 44.9008L669.678 46.9417L668.621 44.9008L665.447 47.9622L660.157 41.8394L658.041 45.9213L651.693 50.0031L646.404 44.9008L644.288 50.0031L637.94 45.9213L633.708 47.9622L628.419 46.9417L623.129 45.9213L617.839 42.8598L613.607 43.8803L609.376 38.778L606.202 41.8394L600.912 44.9008L598.796 40.8189L597.738 44.9008L590.333 38.778L587.159 34.6961L580.811 36.737L578.695 31.6346V27.5528L575.521 28.5732L572.348 25.5118L571.29 29.5937L567.058 27.5528L561.768 29.5937L560.207 28.5732L559.652 25.5118L555.421 24.4913L551.189 21.4299V15.3071L546.957 19.389L542.725 21.4299L540.609 18.3685H538.493L535.32 23.4709L531.088 24.4913L527.914 23.4709L524.74 29.5937L522.624 26.5323L518.393 24.4913L515.219 28.5732L512.045 29.5937H506.755L504.639 30.6142L500.407 33.6756L496.176 31.6346L494.06 35.7165L490.886 36.737L488.77 40.8189L483.48 43.8803L478.191 46.9417L475.017 44.9008L471.843 47.9622H469.727L465.495 48.9827L461.264 47.9622L457.032 51.0236L452.8 47.9622L448.568 41.8394L445.394 37.7575L442.221 42.8598H440.105L433.757 43.8803L429.525 41.8394L426.351 43.8803L421.062 42.8598L418.373 41.8394H414.714L410.482 39.7984H408.366L402.019 36.737L397.787 42.8598L394.613 39.7984L389.323 37.7575L385.092 41.8394L379.802 45.9213L376.628 42.8598L374.512 44.9008L370.28 46.9417L363.933 43.8803L359.701 45.9213L352.295 48.9827L348.064 50.0031L342.774 48.9827L340.658 45.9213L335.368 50.0031L331.136 48.9827L326.905 47.9622L323.731 51.0236L317.981 54.085L315.267 57.1465H313.151H307.862L304.688 61.2283L301.514 62.2488L295.166 65.3102L290.935 66.3307L289.877 69.3921L284.587 68.3717L281.413 66.3307H274.007L271.892 64.2898L266.602 60.2079L264.486 62.2488H260.254L257.08 65.3102L252.849 62.2488L249.675 59.1874L243.327 58.1669L235.921 57.1465L228.516 56.126L224.284 54.085L216.878 55.1055H211.589L207.357 51.0236L204.183 50.0031L193.604 51.0236L189.372 50.0031H184.082L177.735 53.0646L174.561 54.085L171.387 52.0441L166.097 55.1055L162.923 59.1874L157.634 58.1669L154.46 56.126L151.286 58.1669L145.996 59.1874H139.649L134.359 60.2079L131.185 63.2693L124.837 62.2488L123.779 63.2693L119.548 65.3102L116.374 68.3717L114.258 64.2898L112.142 60.2079L110.026 59.1874L104.736 62.2488L100.505 61.2283L97.3308 60.2079L94.157 63.2693L92.0411 62.2488L88.8673 58.1669L86.7514 60.2079L83.5776 57.1465H76.172L70.8822 55.1055L67.7084 50.0031L64.5346 45.9213L61.3607 50.0031L58.1869 54.085L55.0131 57.1465L48.6654 54.085L44.4336 56.126L40.7305 55.1055H32.7963H28.5645L24.3327 58.1669L19.043 59.1874H13.7533L11.6374 58.1669L8.46355 60.2079L3.17383 62.2488Z" fill="#627967"/>
</g>
<defs>
<clipPath id="clip0_209_373">
<rect width="1132" height="648" fill="white"/>
</clipPath>
</defs>
</svg>
