<svg width="49" height="49" viewBox="0 0 49 49" fill="none" xmlns="http://www.w3.org/2000/svg">
<g clip-path="url(#clip0_134_1690)">
<path d="M12.4101 23.9728C12.4101 17.741 18.2679 12.6892 24.4997 12.6892C30.7314 12.6892 36.5892 17.741 36.5892 23.9728H38.2012C39.9817 23.9728 41.425 25.4162 41.425 27.1967V33.6444C41.425 35.4249 39.9817 36.8683 38.2012 36.8683H34.5743C33.4615 36.8683 32.5594 35.9662 32.5594 34.8534V23.9728C32.5594 19.5215 28.9509 16.7191 24.4997 16.7191C20.0484 16.7191 16.44 19.5215 16.44 23.9728V34.8534C16.44 35.9662 15.5379 36.8683 14.4251 36.8683H10.7981C9.01764 36.8683 7.57426 35.4249 7.57426 33.6444V27.1967C7.57426 25.4162 9.01764 23.9728 10.7981 23.9728H12.4101Z" fill="white"/>
</g>
<defs>
<clipPath id="clip0_134_1690">
<rect width="48.3582" height="48.3582" fill="white" transform="translate(0.320923 0.599609)"/>
</clipPath>
</defs>
</svg>
