<svg width="1151" height="25" viewBox="0 0 1151 25" fill="none" xmlns="http://www.w3.org/2000/svg">
<g clip-path="url(#clip0_128_549)">
<path d="M36.4841 25L0 21.4583L0.999565 1.38889L1149.5 6.11111V14.375L1150 22.6389L1137.51 17.9167L1088.03 20.2778L1023.56 13.1944L1012.06 16.7361L915.602 12.0139L907.106 19.0972L873.62 14.375L853.629 16.7361L807.149 4.93055L763.668 9.65277L736.68 17.9167L701.695 20.2778L628.727 15.5556L614.233 17.9167L587.745 15.5556L561.756 16.7361H523.772L482.29 23.8194L470.296 20.2778H456.302L440.309 14.375L431.312 17.9167L390.83 20.2778L377.836 25L357.345 20.2778H350.348L315.363 9.65277L299.37 14.375L264.385 9.65277L252.89 14.375L237.397 9.65277L224.402 14.375L205.91 6.11111L193.416 14.375L143.438 6.11111L118.948 14.375L101.956 6.11111L94.4589 12.0139H77.9661L36.4841 25Z" fill="white"/>
<path d="M36.5159 13.8889L0 11.8056L1.00043 0L1150.5 2.77778V7.63889L1151 12.5L1138.49 9.72222L1088.97 11.1111L1024.45 6.94444L1012.94 9.02778L916.398 6.25L907.894 10.4167L874.38 7.63889L854.371 9.02778L807.851 2.08333L764.332 4.86111L737.32 9.72222L702.305 11.1111L629.273 8.33333L614.767 9.72222L588.256 8.33333L562.244 9.02778H524.228L482.71 13.1944L470.704 11.1111H456.698L440.691 7.63889L431.688 9.72222L391.17 11.1111L378.164 13.8889L357.655 11.1111H350.652L315.637 4.86111L299.63 7.63889L264.615 4.86111L253.11 7.63889L237.603 4.86111L224.598 7.63889L206.09 2.77778L193.584 7.63889L143.562 2.77778L119.052 7.63889L102.044 2.77778L94.5411 6.25H78.0339L36.5159 13.8889Z" fill="#627967" stroke="#627967"/>
</g>
<defs>
<clipPath id="clip0_128_549">
<rect width="1151" height="25" fill="white"/>
</clipPath>
</defs>
</svg>
